<?xml version="1.0" encoding="UTF-8" standalone="no"?>
<!-- Created with Inkscape (http://www.inkscape.org/) -->

<svg
   width="79.537384mm"
   height="79.537369mm"
   viewBox="0 0 79.537384 79.537369"
   version="1.1"
   id="svg213027"
   xmlns="http://www.w3.org/2000/svg"
   xmlns:svg="http://www.w3.org/2000/svg"
   xmlns:shaper="http://www.shapertools.com/namespaces/shaper">
  <defs
     id="defs213024" />
  <g
     id="layer1"
     transform="translate(-9.9040806,-41.615168)">
    <g
       id="g207813"
       style="display:inline"
       transform="translate(-41.872915,-248.44745)">
      <g
         id="g5026-6-2-6-6-7-7"
         transform="matrix(-1.4100453,-0.1660331,-0.1660331,1.4100453,404.50543,128.89303)"
         style="display:inline;stroke:none">
        <g
           id="g5012-2-6-1-8-4-0"
           style="stroke:none">
          <path
             d="m 196.9954,141.01977 a 1.8011244,1.8011244 0 0 1 0.83919,-1.09366 l 0.20013,0.34663 a 1.4008745,1.4008745 0 0 0 -0.6527,0.85062 z"
             fill="#000000"
             shaper:cutDepth="0"
             shaper:pathType="exterior"
             vector-effect="non-scaling-stroke"
             id="path3491-7-9-1-6-92-4-7-9-3"
             style="display:inline;fill:#ffffff;fill-opacity:1;stroke:none;stroke-width:2.00125" />
          <path
             d="m 199.43559,140.27274 0.20013,-0.34663 a 1.8011244,1.8011244 0 0 0 -1.36673,-0.17993 l 0.10359,0.38661 a 1.4008745,1.4008745 0 0 1 1.06301,0.13995 z"
             fill="#000000"
             shaper:cutDepth="0"
             shaper:pathType="exterior"
             vector-effect="non-scaling-stroke"
             id="path3493-10-7-9-5-1-9-9-9-4"
             style="display:inline;fill:#ffffff;fill-opacity:1;stroke:none;stroke-width:2.00125" />
          <path
             d="m 197.46157,142.75952 a 1.8011244,1.8011244 0 0 1 -0.52754,-1.27359 h 0.40025 a 1.4008745,1.4008745 0 0 0 0.41031,0.99057 z"
             fill="#000000"
             shaper:cutDepth="0"
             shaper:pathType="exterior"
             vector-effect="non-scaling-stroke"
             id="path3497-49-8-6-5-5-0-0-4-63"
             style="display:inline;fill:#ffffff;fill-opacity:1;stroke:none;stroke-width:2.00125" />
          <path
             d="m 199.20132,143.22569 a 1.8011244,1.8011244 0 0 1 -1.36673,-0.17994 l 0.20013,-0.34662 a 1.4008745,1.4008745 0 0 0 1.06301,0.13994 z"
             fill="#000000"
             shaper:cutDepth="0"
             shaper:pathType="exterior"
             vector-effect="non-scaling-stroke"
             id="path3499-68-4-0-8-4-6-3-5-6"
             style="display:inline;fill:#ffffff;fill-opacity:1;stroke:none;stroke-width:2.00125" />
          <path
             d="m 200.47491,141.9521 a 1.8011244,1.8011244 0 0 1 -0.83919,1.09365 l -0.20013,-0.34662 a 1.4008745,1.4008745 0 0 0 0.65271,-0.85062 z"
             fill="#000000"
             shaper:cutDepth="0"
             shaper:pathType="exterior"
             vector-effect="non-scaling-stroke"
             id="path3501-32-0-7-9-6-4-3-9-3"
             style="display:inline;fill:#ffffff;fill-opacity:1;stroke:none;stroke-width:2.00125" />
          <path
             d="m 200.00874,140.21235 a 1.8011244,1.8011244 0 0 1 0.52754,1.27358 h -0.40025 a 1.4008745,1.4008745 0 0 0 -0.4103,-0.99056 z"
             fill="#000000"
             shaper:cutDepth="0"
             shaper:pathType="exterior"
             vector-effect="non-scaling-stroke"
             id="path3505-80-0-0-0-6-7-3-3-3"
             style="display:inline;fill:#ffffff;fill-opacity:1;stroke:none;stroke-width:2.00125" />
        </g>
        <g
           id="g3457-7-3-06-0-9-3-7-5-4"
           transform="matrix(2.0012493,0,0,2.0012493,195.9125,139.92572)"
           style="display:inline;stroke:none">
          <g
             id="g3530-0-6-3-0-8-4-3-7-4"
             transform="translate(0.5098166,-0.12628441)"
             style="display:inline;stroke:none">
            <path
               d="m -1.125,4.1544229 -0.1,-0.1732051 a 0.7,0.7 60 0 1 -0.5311733,0.06993 l -0.051764,0.1931851 A 0.9,0.9 105 0 1 -2.025,4.1544229 l 0.1,-0.1732051 A 0.7,0.7 120 0 1 -2.2511481,3.5561733 l -0.1931851,0.051764 A 0.9,0.9 165 0 1 -2.475,3.375 h 0.2 A 0.7,0.7 -180 0 1 -2.0699747,2.8800253 L -2.2113961,2.7386039 A 0.9,0.9 -135 0 1 -2.025,2.5955771 l 0.1,0.1732051 a 0.7,0.7 -120 0 1 0.5311733,-0.06993 l 0.051764,-0.1931851 A 0.9,0.9 -75 0 1 -1.125,2.5955771 l -0.1,0.1732051 a 0.7,0.7 -60 0 1 0.3261481,0.4250445 l 0.1931851,-0.051764 A 0.9,0.9 -15 0 1 -0.675,3.375 h -0.2 a 0.7,0.7 0 0 1 -0.2050253,0.4949747 l 0.1414214,0.1414214 A 0.9,0.9 45 0 1 -1.125,4.1544229 Z"
               fill="#000000"
               shaper:cutDepth="0"
               shaper:pathType="exterior"
               transform="matrix(1,0,0,-1,2.475,4.275)"
               vector-effect="non-scaling-stroke"
               id="path3495-4-8-3-4-8-8-2-0-3"
               style="display:inline;fill:#000000;fill-opacity:1;stroke:none" />
            <path
               d="m -2.129,3.375 a 0.554,0.554 0 1 1 1.108,0 0.554,0.554 0 1 1 -1.108,0 z"
               fill="#ffffff"
               shaper:cutDepth="0"
               shaper:pathType="interior"
               stroke="#000000"
               transform="matrix(1,0,0,-1,2.475,4.275)"
               vector-effect="non-scaling-stroke"
               id="path3507-4-4-6-9-4-7-6-8-97"
               style="display:inline;opacity:1;fill:#ffffff;fill-opacity:1;stroke:none" />
            <path
               d="m -1.979,3.375 a 0.404,0.404 0 1 1 0.808,0 0.404,0.404 0 1 1 -0.808,0 z"
               fill="#ffffff"
               shaper:cutDepth="0"
               shaper:pathType="interior"
               stroke="#000000"
               vector-effect="non-scaling-stroke"
               id="path3509-0-5-7-8-9-1-5-1-2"
               style="display:inline;fill:#000000;fill-opacity:1;stroke:none"
               transform="matrix(1,0,0,-1,2.475,4.275)" />
          </g>
        </g>
      </g>
      <g
         id="g5026-6-2-6-6-7-1-3"
         transform="matrix(-1.4100453,-0.1660331,-0.1660331,1.4100453,409.88955,128.89303)"
         style="display:inline;stroke:none">
        <g
           id="g5012-2-6-1-8-4-9-8"
           style="stroke:none">
          <path
             d="m 196.9954,141.01977 a 1.8011244,1.8011244 0 0 1 0.83919,-1.09366 l 0.20013,0.34663 a 1.4008745,1.4008745 0 0 0 -0.6527,0.85062 z"
             fill="#000000"
             shaper:cutDepth="0"
             shaper:pathType="exterior"
             vector-effect="non-scaling-stroke"
             id="path3491-7-9-1-6-92-4-7-9-6-5"
             style="display:inline;fill:#ffffff;fill-opacity:1;stroke:none;stroke-width:2.00125" />
          <path
             d="m 199.43559,140.27274 0.20013,-0.34663 a 1.8011244,1.8011244 0 0 0 -1.36673,-0.17993 l 0.10359,0.38661 a 1.4008745,1.4008745 0 0 1 1.06301,0.13995 z"
             fill="#000000"
             shaper:cutDepth="0"
             shaper:pathType="exterior"
             vector-effect="non-scaling-stroke"
             id="path3493-10-7-9-5-1-9-9-9-2-1"
             style="display:inline;fill:#ffffff;fill-opacity:1;stroke:none;stroke-width:2.00125" />
          <path
             d="m 197.46157,142.75952 a 1.8011244,1.8011244 0 0 1 -0.52754,-1.27359 h 0.40025 a 1.4008745,1.4008745 0 0 0 0.41031,0.99057 z"
             fill="#000000"
             shaper:cutDepth="0"
             shaper:pathType="exterior"
             vector-effect="non-scaling-stroke"
             id="path3497-49-8-6-5-5-0-0-4-1-0"
             style="display:inline;fill:#ffffff;fill-opacity:1;stroke:none;stroke-width:2.00125" />
          <path
             d="m 199.20132,143.22569 a 1.8011244,1.8011244 0 0 1 -1.36673,-0.17994 l 0.20013,-0.34662 a 1.4008745,1.4008745 0 0 0 1.06301,0.13994 z"
             fill="#000000"
             shaper:cutDepth="0"
             shaper:pathType="exterior"
             vector-effect="non-scaling-stroke"
             id="path3499-68-4-0-8-4-6-3-5-2-8"
             style="display:inline;fill:#ffffff;fill-opacity:1;stroke:none;stroke-width:2.00125" />
          <path
             d="m 200.47491,141.9521 a 1.8011244,1.8011244 0 0 1 -0.83919,1.09365 l -0.20013,-0.34662 a 1.4008745,1.4008745 0 0 0 0.65271,-0.85062 z"
             fill="#000000"
             shaper:cutDepth="0"
             shaper:pathType="exterior"
             vector-effect="non-scaling-stroke"
             id="path3501-32-0-7-9-6-4-3-9-0-7"
             style="display:inline;fill:#ffffff;fill-opacity:1;stroke:none;stroke-width:2.00125" />
          <path
             d="m 200.00874,140.21235 a 1.8011244,1.8011244 0 0 1 0.52754,1.27358 h -0.40025 a 1.4008745,1.4008745 0 0 0 -0.4103,-0.99056 z"
             fill="#000000"
             shaper:cutDepth="0"
             shaper:pathType="exterior"
             vector-effect="non-scaling-stroke"
             id="path3505-80-0-0-0-6-7-3-3-7-6"
             style="display:inline;fill:#ffffff;fill-opacity:1;stroke:none;stroke-width:2.00125" />
        </g>
        <g
           id="g3457-7-3-06-0-9-3-7-5-3-3"
           transform="matrix(2.0012493,0,0,2.0012493,195.9125,139.92572)"
           style="display:inline;stroke:none">
          <g
             id="g3530-0-6-3-0-8-4-3-7-1-5"
             transform="translate(0.5098166,-0.12628441)"
             style="display:inline;stroke:none">
            <path
               d="m -1.125,4.1544229 -0.1,-0.1732051 a 0.7,0.7 60 0 1 -0.5311733,0.06993 l -0.051764,0.1931851 A 0.9,0.9 105 0 1 -2.025,4.1544229 l 0.1,-0.1732051 A 0.7,0.7 120 0 1 -2.2511481,3.5561733 l -0.1931851,0.051764 A 0.9,0.9 165 0 1 -2.475,3.375 h 0.2 A 0.7,0.7 -180 0 1 -2.0699747,2.8800253 L -2.2113961,2.7386039 A 0.9,0.9 -135 0 1 -2.025,2.5955771 l 0.1,0.1732051 a 0.7,0.7 -120 0 1 0.5311733,-0.06993 l 0.051764,-0.1931851 A 0.9,0.9 -75 0 1 -1.125,2.5955771 l -0.1,0.1732051 a 0.7,0.7 -60 0 1 0.3261481,0.4250445 l 0.1931851,-0.051764 A 0.9,0.9 -15 0 1 -0.675,3.375 h -0.2 a 0.7,0.7 0 0 1 -0.2050253,0.4949747 l 0.1414214,0.1414214 A 0.9,0.9 45 0 1 -1.125,4.1544229 Z"
               fill="#000000"
               shaper:cutDepth="0"
               shaper:pathType="exterior"
               transform="matrix(1,0,0,-1,2.475,4.275)"
               vector-effect="non-scaling-stroke"
               id="path3495-4-8-3-4-8-8-2-0-1-0"
               style="display:inline;fill:#000000;fill-opacity:1;stroke:none" />
            <path
               d="m -2.129,3.375 a 0.554,0.554 0 1 1 1.108,0 0.554,0.554 0 1 1 -1.108,0 z"
               fill="#ffffff"
               shaper:cutDepth="0"
               shaper:pathType="interior"
               stroke="#000000"
               transform="matrix(1,0,0,-1,2.475,4.275)"
               vector-effect="non-scaling-stroke"
               id="path3507-4-4-6-9-4-7-6-8-9-8"
               style="display:inline;opacity:1;fill:#ffffff;fill-opacity:1;stroke:none" />
            <path
               d="m -1.979,3.375 a 0.404,0.404 0 1 1 0.808,0 0.404,0.404 0 1 1 -0.808,0 z"
               fill="#ffffff"
               shaper:cutDepth="0"
               shaper:pathType="interior"
               stroke="#000000"
               vector-effect="non-scaling-stroke"
               id="path3509-0-5-7-8-9-1-5-1-0-0"
               style="display:inline;fill:#000000;fill-opacity:1;stroke:none"
               transform="matrix(1,0,0,-1,2.475,4.275)" />
          </g>
        </g>
      </g>
      <g
         id="g5026-6-2-6-6-7-2-3"
         transform="matrix(-1.4100453,-0.1660331,-0.1660331,1.4100453,415.35717,128.89303)"
         style="display:inline;stroke:none">
        <g
           id="g5012-2-6-1-8-4-6-5"
           style="stroke:none">
          <path
             d="m 196.9954,141.01977 a 1.8011244,1.8011244 0 0 1 0.83919,-1.09366 l 0.20013,0.34663 a 1.4008745,1.4008745 0 0 0 -0.6527,0.85062 z"
             fill="#000000"
             shaper:cutDepth="0"
             shaper:pathType="exterior"
             vector-effect="non-scaling-stroke"
             id="path3491-7-9-1-6-92-4-7-9-0-6"
             style="display:inline;fill:#ffffff;fill-opacity:1;stroke:none;stroke-width:2.00125" />
          <path
             d="m 199.43559,140.27274 0.20013,-0.34663 a 1.8011244,1.8011244 0 0 0 -1.36673,-0.17993 l 0.10359,0.38661 a 1.4008745,1.4008745 0 0 1 1.06301,0.13995 z"
             fill="#000000"
             shaper:cutDepth="0"
             shaper:pathType="exterior"
             vector-effect="non-scaling-stroke"
             id="path3493-10-7-9-5-1-9-9-9-6-5"
             style="display:inline;fill:#ffffff;fill-opacity:1;stroke:none;stroke-width:2.00125" />
          <path
             d="m 197.46157,142.75952 a 1.8011244,1.8011244 0 0 1 -0.52754,-1.27359 h 0.40025 a 1.4008745,1.4008745 0 0 0 0.41031,0.99057 z"
             fill="#000000"
             shaper:cutDepth="0"
             shaper:pathType="exterior"
             vector-effect="non-scaling-stroke"
             id="path3497-49-8-6-5-5-0-0-4-6-9"
             style="display:inline;fill:#ffffff;fill-opacity:1;stroke:none;stroke-width:2.00125" />
          <path
             d="m 199.20132,143.22569 a 1.8011244,1.8011244 0 0 1 -1.36673,-0.17994 l 0.20013,-0.34662 a 1.4008745,1.4008745 0 0 0 1.06301,0.13994 z"
             fill="#000000"
             shaper:cutDepth="0"
             shaper:pathType="exterior"
             vector-effect="non-scaling-stroke"
             id="path3499-68-4-0-8-4-6-3-5-4-9"
             style="display:inline;fill:#ffffff;fill-opacity:1;stroke:none;stroke-width:2.00125" />
          <path
             d="m 200.47491,141.9521 a 1.8011244,1.8011244 0 0 1 -0.83919,1.09365 l -0.20013,-0.34662 a 1.4008745,1.4008745 0 0 0 0.65271,-0.85062 z"
             fill="#000000"
             shaper:cutDepth="0"
             shaper:pathType="exterior"
             vector-effect="non-scaling-stroke"
             id="path3501-32-0-7-9-6-4-3-9-6-0"
             style="display:inline;fill:#ffffff;fill-opacity:1;stroke:none;stroke-width:2.00125" />
          <path
             d="m 200.00874,140.21235 a 1.8011244,1.8011244 0 0 1 0.52754,1.27358 h -0.40025 a 1.4008745,1.4008745 0 0 0 -0.4103,-0.99056 z"
             fill="#000000"
             shaper:cutDepth="0"
             shaper:pathType="exterior"
             vector-effect="non-scaling-stroke"
             id="path3505-80-0-0-0-6-7-3-3-2-7"
             style="display:inline;fill:#ffffff;fill-opacity:1;stroke:none;stroke-width:2.00125" />
        </g>
        <g
           id="g3457-7-3-06-0-9-3-7-5-8-6"
           transform="matrix(2.0012493,0,0,2.0012493,195.9125,139.92572)"
           style="display:inline;stroke:none">
          <g
             id="g3530-0-6-3-0-8-4-3-7-9-3"
             transform="translate(0.5098166,-0.12628441)"
             style="display:inline;stroke:none">
            <path
               d="m -1.125,4.1544229 -0.1,-0.1732051 a 0.7,0.7 60 0 1 -0.5311733,0.06993 l -0.051764,0.1931851 A 0.9,0.9 105 0 1 -2.025,4.1544229 l 0.1,-0.1732051 A 0.7,0.7 120 0 1 -2.2511481,3.5561733 l -0.1931851,0.051764 A 0.9,0.9 165 0 1 -2.475,3.375 h 0.2 A 0.7,0.7 -180 0 1 -2.0699747,2.8800253 L -2.2113961,2.7386039 A 0.9,0.9 -135 0 1 -2.025,2.5955771 l 0.1,0.1732051 a 0.7,0.7 -120 0 1 0.5311733,-0.06993 l 0.051764,-0.1931851 A 0.9,0.9 -75 0 1 -1.125,2.5955771 l -0.1,0.1732051 a 0.7,0.7 -60 0 1 0.3261481,0.4250445 l 0.1931851,-0.051764 A 0.9,0.9 -15 0 1 -0.675,3.375 h -0.2 a 0.7,0.7 0 0 1 -0.2050253,0.4949747 l 0.1414214,0.1414214 A 0.9,0.9 45 0 1 -1.125,4.1544229 Z"
               fill="#000000"
               shaper:cutDepth="0"
               shaper:pathType="exterior"
               transform="matrix(1,0,0,-1,2.475,4.275)"
               vector-effect="non-scaling-stroke"
               id="path3495-4-8-3-4-8-8-2-0-6-7"
               style="display:inline;fill:#000000;fill-opacity:1;stroke:none" />
            <path
               d="m -2.129,3.375 a 0.554,0.554 0 1 1 1.108,0 0.554,0.554 0 1 1 -1.108,0 z"
               fill="#ffffff"
               shaper:cutDepth="0"
               shaper:pathType="interior"
               stroke="#000000"
               transform="matrix(1,0,0,-1,2.475,4.275)"
               vector-effect="non-scaling-stroke"
               id="path3507-4-4-6-9-4-7-6-8-0-6"
               style="display:inline;opacity:1;fill:#ffffff;fill-opacity:1;stroke:none" />
            <path
               d="m -1.979,3.375 a 0.404,0.404 0 1 1 0.808,0 0.404,0.404 0 1 1 -0.808,0 z"
               fill="#ffffff"
               shaper:cutDepth="0"
               shaper:pathType="interior"
               stroke="#000000"
               vector-effect="non-scaling-stroke"
               id="path3509-0-5-7-8-9-1-5-1-7-1"
               style="display:inline;fill:#000000;fill-opacity:1;stroke:none"
               transform="matrix(1,0,0,-1,2.475,4.275)" />
          </g>
        </g>
      </g>
      <g
         id="g5026-6-2-6-6-7-1-0-5"
         transform="matrix(-1.4100453,-0.1660331,-0.1660331,1.4100453,420.74129,128.89303)"
         style="display:inline;stroke:none">
        <g
           id="g5012-2-6-1-8-4-9-2-0"
           style="stroke:none">
          <path
             d="m 196.9954,141.01977 a 1.8011244,1.8011244 0 0 1 0.83919,-1.09366 l 0.20013,0.34663 a 1.4008745,1.4008745 0 0 0 -0.6527,0.85062 z"
             fill="#000000"
             shaper:cutDepth="0"
             shaper:pathType="exterior"
             vector-effect="non-scaling-stroke"
             id="path3491-7-9-1-6-92-4-7-9-6-9-6"
             style="display:inline;fill:#ffffff;fill-opacity:1;stroke:none;stroke-width:2.00125" />
          <path
             d="m 199.43559,140.27274 0.20013,-0.34663 a 1.8011244,1.8011244 0 0 0 -1.36673,-0.17993 l 0.10359,0.38661 a 1.4008745,1.4008745 0 0 1 1.06301,0.13995 z"
             fill="#000000"
             shaper:cutDepth="0"
             shaper:pathType="exterior"
             vector-effect="non-scaling-stroke"
             id="path3493-10-7-9-5-1-9-9-9-2-0-5"
             style="display:inline;fill:#ffffff;fill-opacity:1;stroke:none;stroke-width:2.00125" />
          <path
             d="m 197.46157,142.75952 a 1.8011244,1.8011244 0 0 1 -0.52754,-1.27359 h 0.40025 a 1.4008745,1.4008745 0 0 0 0.41031,0.99057 z"
             fill="#000000"
             shaper:cutDepth="0"
             shaper:pathType="exterior"
             vector-effect="non-scaling-stroke"
             id="path3497-49-8-6-5-5-0-0-4-1-9-0"
             style="display:inline;fill:#ffffff;fill-opacity:1;stroke:none;stroke-width:2.00125" />
          <path
             d="m 199.20132,143.22569 a 1.8011244,1.8011244 0 0 1 -1.36673,-0.17994 l 0.20013,-0.34662 a 1.4008745,1.4008745 0 0 0 1.06301,0.13994 z"
             fill="#000000"
             shaper:cutDepth="0"
             shaper:pathType="exterior"
             vector-effect="non-scaling-stroke"
             id="path3499-68-4-0-8-4-6-3-5-2-9-8"
             style="display:inline;fill:#ffffff;fill-opacity:1;stroke:none;stroke-width:2.00125" />
          <path
             d="m 200.47491,141.9521 a 1.8011244,1.8011244 0 0 1 -0.83919,1.09365 l -0.20013,-0.34662 a 1.4008745,1.4008745 0 0 0 0.65271,-0.85062 z"
             fill="#000000"
             shaper:cutDepth="0"
             shaper:pathType="exterior"
             vector-effect="non-scaling-stroke"
             id="path3501-32-0-7-9-6-4-3-9-0-4-1"
             style="display:inline;fill:#ffffff;fill-opacity:1;stroke:none;stroke-width:2.00125" />
          <path
             d="m 200.00874,140.21235 a 1.8011244,1.8011244 0 0 1 0.52754,1.27358 h -0.40025 a 1.4008745,1.4008745 0 0 0 -0.4103,-0.99056 z"
             fill="#000000"
             shaper:cutDepth="0"
             shaper:pathType="exterior"
             vector-effect="non-scaling-stroke"
             id="path3505-80-0-0-0-6-7-3-3-7-5-2"
             style="display:inline;fill:#ffffff;fill-opacity:1;stroke:none;stroke-width:2.00125" />
        </g>
        <g
           id="g3457-7-3-06-0-9-3-7-5-3-1-2"
           transform="matrix(2.0012493,0,0,2.0012493,195.9125,139.92572)"
           style="display:inline;stroke:none">
          <g
             id="g3530-0-6-3-0-8-4-3-7-1-0-6"
             transform="translate(0.5098166,-0.12628441)"
             style="display:inline;stroke:none">
            <path
               d="m -1.125,4.1544229 -0.1,-0.1732051 a 0.7,0.7 60 0 1 -0.5311733,0.06993 l -0.051764,0.1931851 A 0.9,0.9 105 0 1 -2.025,4.1544229 l 0.1,-0.1732051 A 0.7,0.7 120 0 1 -2.2511481,3.5561733 l -0.1931851,0.051764 A 0.9,0.9 165 0 1 -2.475,3.375 h 0.2 A 0.7,0.7 -180 0 1 -2.0699747,2.8800253 L -2.2113961,2.7386039 A 0.9,0.9 -135 0 1 -2.025,2.5955771 l 0.1,0.1732051 a 0.7,0.7 -120 0 1 0.5311733,-0.06993 l 0.051764,-0.1931851 A 0.9,0.9 -75 0 1 -1.125,2.5955771 l -0.1,0.1732051 a 0.7,0.7 -60 0 1 0.3261481,0.4250445 l 0.1931851,-0.051764 A 0.9,0.9 -15 0 1 -0.675,3.375 h -0.2 a 0.7,0.7 0 0 1 -0.2050253,0.4949747 l 0.1414214,0.1414214 A 0.9,0.9 45 0 1 -1.125,4.1544229 Z"
               fill="#000000"
               shaper:cutDepth="0"
               shaper:pathType="exterior"
               transform="matrix(1,0,0,-1,2.475,4.275)"
               vector-effect="non-scaling-stroke"
               id="path3495-4-8-3-4-8-8-2-0-1-3-9"
               style="display:inline;fill:#000000;fill-opacity:1;stroke:none" />
            <path
               d="m -2.129,3.375 a 0.554,0.554 0 1 1 1.108,0 0.554,0.554 0 1 1 -1.108,0 z"
               fill="#ffffff"
               shaper:cutDepth="0"
               shaper:pathType="interior"
               stroke="#000000"
               transform="matrix(1,0,0,-1,2.475,4.275)"
               vector-effect="non-scaling-stroke"
               id="path3507-4-4-6-9-4-7-6-8-9-7-1"
               style="display:inline;opacity:1;fill:#ffffff;fill-opacity:1;stroke:none" />
            <path
               d="m -1.979,3.375 a 0.404,0.404 0 1 1 0.808,0 0.404,0.404 0 1 1 -0.808,0 z"
               fill="#ffffff"
               shaper:cutDepth="0"
               shaper:pathType="interior"
               stroke="#000000"
               vector-effect="non-scaling-stroke"
               id="path3509-0-5-7-8-9-1-5-1-0-8-0"
               style="display:inline;fill:#000000;fill-opacity:1;stroke:none"
               transform="matrix(1,0,0,-1,2.475,4.275)" />
          </g>
        </g>
      </g>
      <g
         id="g5026-6-2-6-6-7-2-3-4"
         transform="matrix(-1.4100453,-0.1660331,-0.1660331,1.4100453,393.78209,128.89303)"
         style="display:inline;stroke:none">
        <g
           id="g5012-2-6-1-8-4-6-5-9"
           style="stroke:none">
          <path
             d="m 196.9954,141.01977 a 1.8011244,1.8011244 0 0 1 0.83919,-1.09366 l 0.20013,0.34663 a 1.4008745,1.4008745 0 0 0 -0.6527,0.85062 z"
             fill="#000000"
             shaper:cutDepth="0"
             shaper:pathType="exterior"
             vector-effect="non-scaling-stroke"
             id="path3491-7-9-1-6-92-4-7-9-0-6-9"
             style="display:inline;fill:#ffffff;fill-opacity:1;stroke:none;stroke-width:2.00125" />
          <path
             d="m 199.43559,140.27274 0.20013,-0.34663 a 1.8011244,1.8011244 0 0 0 -1.36673,-0.17993 l 0.10359,0.38661 a 1.4008745,1.4008745 0 0 1 1.06301,0.13995 z"
             fill="#000000"
             shaper:cutDepth="0"
             shaper:pathType="exterior"
             vector-effect="non-scaling-stroke"
             id="path3493-10-7-9-5-1-9-9-9-6-5-0"
             style="display:inline;fill:#ffffff;fill-opacity:1;stroke:none;stroke-width:2.00125" />
          <path
             d="m 197.46157,142.75952 a 1.8011244,1.8011244 0 0 1 -0.52754,-1.27359 h 0.40025 a 1.4008745,1.4008745 0 0 0 0.41031,0.99057 z"
             fill="#000000"
             shaper:cutDepth="0"
             shaper:pathType="exterior"
             vector-effect="non-scaling-stroke"
             id="path3497-49-8-6-5-5-0-0-4-6-9-8"
             style="display:inline;fill:#ffffff;fill-opacity:1;stroke:none;stroke-width:2.00125" />
          <path
             d="m 199.20132,143.22569 a 1.8011244,1.8011244 0 0 1 -1.36673,-0.17994 l 0.20013,-0.34662 a 1.4008745,1.4008745 0 0 0 1.06301,0.13994 z"
             fill="#000000"
             shaper:cutDepth="0"
             shaper:pathType="exterior"
             vector-effect="non-scaling-stroke"
             id="path3499-68-4-0-8-4-6-3-5-4-9-9"
             style="display:inline;fill:#ffffff;fill-opacity:1;stroke:none;stroke-width:2.00125" />
          <path
             d="m 200.47491,141.9521 a 1.8011244,1.8011244 0 0 1 -0.83919,1.09365 l -0.20013,-0.34662 a 1.4008745,1.4008745 0 0 0 0.65271,-0.85062 z"
             fill="#000000"
             shaper:cutDepth="0"
             shaper:pathType="exterior"
             vector-effect="non-scaling-stroke"
             id="path3501-32-0-7-9-6-4-3-9-6-0-3"
             style="display:inline;fill:#ffffff;fill-opacity:1;stroke:none;stroke-width:2.00125" />
          <path
             d="m 200.00874,140.21235 a 1.8011244,1.8011244 0 0 1 0.52754,1.27358 h -0.40025 a 1.4008745,1.4008745 0 0 0 -0.4103,-0.99056 z"
             fill="#000000"
             shaper:cutDepth="0"
             shaper:pathType="exterior"
             vector-effect="non-scaling-stroke"
             id="path3505-80-0-0-0-6-7-3-3-2-7-1"
             style="display:inline;fill:#ffffff;fill-opacity:1;stroke:none;stroke-width:2.00125" />
        </g>
        <g
           id="g3457-7-3-06-0-9-3-7-5-8-6-4"
           transform="matrix(2.0012493,0,0,2.0012493,195.9125,139.92572)"
           style="display:inline;stroke:none">
          <g
             id="g3530-0-6-3-0-8-4-3-7-9-3-8"
             transform="translate(0.5098166,-0.12628441)"
             style="display:inline;stroke:none">
            <path
               d="m -1.125,4.1544229 -0.1,-0.1732051 a 0.7,0.7 60 0 1 -0.5311733,0.06993 l -0.051764,0.1931851 A 0.9,0.9 105 0 1 -2.025,4.1544229 l 0.1,-0.1732051 A 0.7,0.7 120 0 1 -2.2511481,3.5561733 l -0.1931851,0.051764 A 0.9,0.9 165 0 1 -2.475,3.375 h 0.2 A 0.7,0.7 -180 0 1 -2.0699747,2.8800253 L -2.2113961,2.7386039 A 0.9,0.9 -135 0 1 -2.025,2.5955771 l 0.1,0.1732051 a 0.7,0.7 -120 0 1 0.5311733,-0.06993 l 0.051764,-0.1931851 A 0.9,0.9 -75 0 1 -1.125,2.5955771 l -0.1,0.1732051 a 0.7,0.7 -60 0 1 0.3261481,0.4250445 l 0.1931851,-0.051764 A 0.9,0.9 -15 0 1 -0.675,3.375 h -0.2 a 0.7,0.7 0 0 1 -0.2050253,0.4949747 l 0.1414214,0.1414214 A 0.9,0.9 45 0 1 -1.125,4.1544229 Z"
               fill="#000000"
               shaper:cutDepth="0"
               shaper:pathType="exterior"
               transform="matrix(1,0,0,-1,2.475,4.275)"
               vector-effect="non-scaling-stroke"
               id="path3495-4-8-3-4-8-8-2-0-6-7-9"
               style="display:inline;fill:#000000;fill-opacity:1;stroke:none" />
            <path
               d="m -2.129,3.375 a 0.554,0.554 0 1 1 1.108,0 0.554,0.554 0 1 1 -1.108,0 z"
               fill="#ffffff"
               shaper:cutDepth="0"
               shaper:pathType="interior"
               stroke="#000000"
               transform="matrix(1,0,0,-1,2.475,4.275)"
               vector-effect="non-scaling-stroke"
               id="path3507-4-4-6-9-4-7-6-8-0-6-6"
               style="display:inline;opacity:1;fill:#ffffff;fill-opacity:1;stroke:none" />
            <path
               d="m -1.979,3.375 a 0.404,0.404 0 1 1 0.808,0 0.404,0.404 0 1 1 -0.808,0 z"
               fill="#ffffff"
               shaper:cutDepth="0"
               shaper:pathType="interior"
               stroke="#000000"
               vector-effect="non-scaling-stroke"
               id="path3509-0-5-7-8-9-1-5-1-7-1-7"
               style="display:inline;fill:#000000;fill-opacity:1;stroke:none"
               transform="matrix(1,0,0,-1,2.475,4.275)" />
          </g>
        </g>
      </g>
      <g
         id="g5026-6-2-6-6-7-1-0-5-7"
         transform="matrix(-1.4100453,-0.1660331,-0.1660331,1.4100453,399.16622,128.89303)"
         style="display:inline;stroke:none">
        <g
           id="g5012-2-6-1-8-4-9-2-0-3"
           style="stroke:none">
          <path
             d="m 196.9954,141.01977 a 1.8011244,1.8011244 0 0 1 0.83919,-1.09366 l 0.20013,0.34663 a 1.4008745,1.4008745 0 0 0 -0.6527,0.85062 z"
             fill="#000000"
             shaper:cutDepth="0"
             shaper:pathType="exterior"
             vector-effect="non-scaling-stroke"
             id="path3491-7-9-1-6-92-4-7-9-6-9-6-7"
             style="display:inline;fill:#ffffff;fill-opacity:1;stroke:none;stroke-width:2.00125" />
          <path
             d="m 199.43559,140.27274 0.20013,-0.34663 a 1.8011244,1.8011244 0 0 0 -1.36673,-0.17993 l 0.10359,0.38661 a 1.4008745,1.4008745 0 0 1 1.06301,0.13995 z"
             fill="#000000"
             shaper:cutDepth="0"
             shaper:pathType="exterior"
             vector-effect="non-scaling-stroke"
             id="path3493-10-7-9-5-1-9-9-9-2-0-5-1"
             style="display:inline;fill:#ffffff;fill-opacity:1;stroke:none;stroke-width:2.00125" />
          <path
             d="m 197.46157,142.75952 a 1.8011244,1.8011244 0 0 1 -0.52754,-1.27359 h 0.40025 a 1.4008745,1.4008745 0 0 0 0.41031,0.99057 z"
             fill="#000000"
             shaper:cutDepth="0"
             shaper:pathType="exterior"
             vector-effect="non-scaling-stroke"
             id="path3497-49-8-6-5-5-0-0-4-1-9-0-2"
             style="display:inline;fill:#ffffff;fill-opacity:1;stroke:none;stroke-width:2.00125" />
          <path
             d="m 199.20132,143.22569 a 1.8011244,1.8011244 0 0 1 -1.36673,-0.17994 l 0.20013,-0.34662 a 1.4008745,1.4008745 0 0 0 1.06301,0.13994 z"
             fill="#000000"
             shaper:cutDepth="0"
             shaper:pathType="exterior"
             vector-effect="non-scaling-stroke"
             id="path3499-68-4-0-8-4-6-3-5-2-9-8-2"
             style="display:inline;fill:#ffffff;fill-opacity:1;stroke:none;stroke-width:2.00125" />
          <path
             d="m 200.47491,141.9521 a 1.8011244,1.8011244 0 0 1 -0.83919,1.09365 l -0.20013,-0.34662 a 1.4008745,1.4008745 0 0 0 0.65271,-0.85062 z"
             fill="#000000"
             shaper:cutDepth="0"
             shaper:pathType="exterior"
             vector-effect="non-scaling-stroke"
             id="path3501-32-0-7-9-6-4-3-9-0-4-1-1"
             style="display:inline;fill:#ffffff;fill-opacity:1;stroke:none;stroke-width:2.00125" />
          <path
             d="m 200.00874,140.21235 a 1.8011244,1.8011244 0 0 1 0.52754,1.27358 h -0.40025 a 1.4008745,1.4008745 0 0 0 -0.4103,-0.99056 z"
             fill="#000000"
             shaper:cutDepth="0"
             shaper:pathType="exterior"
             vector-effect="non-scaling-stroke"
             id="path3505-80-0-0-0-6-7-3-3-7-5-2-5"
             style="display:inline;fill:#ffffff;fill-opacity:1;stroke:none;stroke-width:2.00125" />
        </g>
        <g
           id="g3457-7-3-06-0-9-3-7-5-3-1-2-0"
           transform="matrix(2.0012493,0,0,2.0012493,195.9125,139.92572)"
           style="display:inline;stroke:none">
          <g
             id="g3530-0-6-3-0-8-4-3-7-1-0-6-9"
             transform="translate(0.5098166,-0.12628441)"
             style="display:inline;stroke:none">
            <path
               d="m -1.125,4.1544229 -0.1,-0.1732051 a 0.7,0.7 60 0 1 -0.5311733,0.06993 l -0.051764,0.1931851 A 0.9,0.9 105 0 1 -2.025,4.1544229 l 0.1,-0.1732051 A 0.7,0.7 120 0 1 -2.2511481,3.5561733 l -0.1931851,0.051764 A 0.9,0.9 165 0 1 -2.475,3.375 h 0.2 A 0.7,0.7 -180 0 1 -2.0699747,2.8800253 L -2.2113961,2.7386039 A 0.9,0.9 -135 0 1 -2.025,2.5955771 l 0.1,0.1732051 a 0.7,0.7 -120 0 1 0.5311733,-0.06993 l 0.051764,-0.1931851 A 0.9,0.9 -75 0 1 -1.125,2.5955771 l -0.1,0.1732051 a 0.7,0.7 -60 0 1 0.3261481,0.4250445 l 0.1931851,-0.051764 A 0.9,0.9 -15 0 1 -0.675,3.375 h -0.2 a 0.7,0.7 0 0 1 -0.2050253,0.4949747 l 0.1414214,0.1414214 A 0.9,0.9 45 0 1 -1.125,4.1544229 Z"
               fill="#000000"
               shaper:cutDepth="0"
               shaper:pathType="exterior"
               transform="matrix(1,0,0,-1,2.475,4.275)"
               vector-effect="non-scaling-stroke"
               id="path3495-4-8-3-4-8-8-2-0-1-3-9-0"
               style="display:inline;fill:#000000;fill-opacity:1;stroke:none" />
            <path
               d="m -2.129,3.375 a 0.554,0.554 0 1 1 1.108,0 0.554,0.554 0 1 1 -1.108,0 z"
               fill="#ffffff"
               shaper:cutDepth="0"
               shaper:pathType="interior"
               stroke="#000000"
               transform="matrix(1,0,0,-1,2.475,4.275)"
               vector-effect="non-scaling-stroke"
               id="path3507-4-4-6-9-4-7-6-8-9-7-1-4"
               style="display:inline;opacity:1;fill:#ffffff;fill-opacity:1;stroke:none" />
            <path
               d="m -1.979,3.375 a 0.404,0.404 0 1 1 0.808,0 0.404,0.404 0 1 1 -0.808,0 z"
               fill="#ffffff"
               shaper:cutDepth="0"
               shaper:pathType="interior"
               stroke="#000000"
               vector-effect="non-scaling-stroke"
               id="path3509-0-5-7-8-9-1-5-1-0-8-0-0"
               style="display:inline;fill:#000000;fill-opacity:1;stroke:none"
               transform="matrix(1,0,0,-1,2.475,4.275)" />
          </g>
        </g>
      </g>
    </g>
  </g>
</svg>
