<?xml version="1.0" encoding="UTF-8" standalone="no"?>
<!-- Created with Inkscape (http://www.inkscape.org/) -->

<svg
   width="79.537384mm"
   height="79.537369mm"
   viewBox="0 0 79.537384 79.537369"
   version="1.1"
   id="svg213027"
   xmlns="http://www.w3.org/2000/svg"
   xmlns:svg="http://www.w3.org/2000/svg">
  <defs
     id="defs213024" />
  <g
     id="layer1"
     transform="translate(-9.9040806,-41.615168)">
    <g
       id="g152508"
       transform="matrix(0.7931787,0,0,0.7931787,-42.602323,-188.9556)"
       style="display:inline">
      <path
         id="path152405"
         d="m 129.29154,314.12268 c -0.0224,0.69703 -1.23808,0.71493 -1.66591,1.26568 -0.42782,0.55074 -0.14448,1.73309 -0.81432,1.92719 -0.66983,0.19409 -1.06253,-0.95657 -1.71852,-1.19326 -0.656,-0.23669 -1.69292,0.39814 -2.08451,-0.17893 -0.39158,-0.57707 0.58141,-1.30612 0.60381,-2.00315 0.0224,-0.69703 -0.9018,-1.48703 -0.47398,-2.03777 0.42782,-0.55075 1.42186,0.14933 2.09169,-0.0448 0.66984,-0.1941 1.13558,-1.31718 1.79158,-1.08049 0.65599,0.2367 0.29735,1.39842 0.68893,1.97549 0.39159,0.57708 1.60363,0.67297 1.58123,1.37 z"
         style="stroke-width:0.191471" />
      <path
         id="path152405-8"
         d="m 123.18658,310.18648 c 0.32912,0.61484 -0.71474,1.23818 -0.80987,1.92906 -0.0951,0.69086 0.74141,1.57314 0.25837,2.07615 -0.48305,0.50301 -1.39846,-0.29715 -2.08492,-0.17413 -0.68645,0.12302 -1.26704,1.19126 -1.89469,0.8873 -0.62767,-0.30397 -0.14956,-1.42184 -0.47867,-2.03668 -0.32912,-0.61485 -1.5245,-0.83691 -1.42936,-1.52778 0.0951,-0.69087 1.30603,-0.58159 1.78906,-1.08464 0.48304,-0.50301 0.32484,-1.7085 1.0113,-1.83151 0.68646,-0.12302 0.95672,1.06239 1.58438,1.36635 0.62766,0.30397 1.72526,-0.219 2.05438,0.39584 z"
         style="display:inline;stroke-width:0.191471" />
    </g>
  </g>
</svg>
