<?xml version="1.0" encoding="UTF-8" standalone="no"?>
<!-- Created with Inkscape (http://www.inkscape.org/) -->

<svg
   width="79.537384mm"
   height="79.537369mm"
   viewBox="0 0 79.537384 79.537369"
   version="1.1"
   id="svg213027"
   xmlns="http://www.w3.org/2000/svg"
   xmlns:svg="http://www.w3.org/2000/svg">
  <defs
     id="defs213024" />
  <g
     id="layer1"
     transform="translate(-9.9040806,-41.615168)">
    <g
       id="g162324"
       transform="matrix(0.75729655,0,0,0.75729655,-28.02461,-171.69108)"
       style="display:inline">
      <path
         id="rect152510"
         d="m 98.057581,308.53207 v 6.11797 h 2.892849 c 0,0 1.92074,-0.37878 2.89336,-0.37878 0.97262,0 2.89336,0.37878 2.89336,0.37878 H 109.63 v -6.11797 h -2.89285 c 0,0 -1.92074,0.37879 -2.89336,0.37879 -0.97262,0 -2.89336,-0.37879 -2.89336,-0.37879 z" />
      <rect
         style="fill:#ffffff;stroke:none;stroke-width:1"
         id="rect152512"
         width="11.585579"
         height="1.5039662"
         x="98.053642"
         y="309.82654" />
      <path
         style="fill:#000000;stroke:none;stroke-width:1"
         id="path152657"
         d="m 104.08859,310.52908 -0.51889,0.0744 -0.0744,0.5189 -0.0744,-0.5189 -0.51889,-0.0744 0.51889,-0.0744 0.0744,-0.51889 0.0744,0.51889 z"
         transform="matrix(1.2430651,0,0,1.2430651,-24.792855,-75.434168)" />
    </g>
  </g>
</svg>
