<?xml version="1.0" encoding="UTF-8" standalone="no"?>
<!-- Created with Inkscape (http://www.inkscape.org/) -->

<svg
   width="101.11055mm"
   height="44.255814mm"
   viewBox="0 0 101.11055 44.255814"
   version="1.1"
   id="svg485"
   xmlns="http://www.w3.org/2000/svg"
   xmlns:svg="http://www.w3.org/2000/svg">
  <defs
     id="defs482" />
  <g
     id="layer1"
     transform="translate(-8.4149076,-11.473841)">
    <g
       aria-label="e l l i o t  .   z o n e"
       transform="matrix(0.35252746,0,0,0.35252746,-265.9563,-15.50666)"
       id="text1798"
       style="font-style:normal;font-variant:normal;font-weight:normal;font-stretch:normal;font-size:32px;line-height:1.25;font-family:'CMU Sans Serif';-inkscape-font-specification:'CMU Sans Serif';text-align:justify;white-space:pre;shape-inside:url(#rect1800)">
      <path
         d="m 778.72862,194.48909 c 0,3.968 2.784,7.584 6.976,7.584 2.01601,0 3.68001,-0.704 5.056,-1.632 l -0.192,-2.112 c -1.408,1.024 -2.84799,1.76 -4.864,1.76 -2.432,0 -4.60799,-2.112 -4.736,-5.408 h 9.92001 v -0.928 c -0.288,-5.472 -3.42401,-6.784 -5.696,-6.784 -3.39201,0 -6.46401,3.232 -6.46401,7.52 z m 2.40001,-1.568 c 0.352,-1.568 1.63199,-3.968 4.064,-3.968 0.928,0 3.32799,0.416 3.87199,3.968 z"
         style="shape-inside:url(#rect1800)"
         id="path1832" />
      <path
         d="m 805.09652,201.72109 h 2.4 v -23.104 h -2.4 z"
         style="shape-inside:url(#rect1800)"
         id="path1834" />
      <path
         d="m 823.40041,201.72109 h 2.4 v -23.104 h -2.4 z"
         style="shape-inside:url(#rect1800)"
         id="path1836" />
      <path
         d="m 841.7043,201.72109 h 2.4 v -14.24 h -2.4 z m -0.224,-18.88 h 2.88 v -2.848 h -2.88 z"
         style="shape-inside:url(#rect1800)"
         id="path1838" />
      <path
         d="m 858.3762,194.64909 c 0,4.352 3.36,7.424 7.008,7.424 3.648,0 7.04,-3.04 7.04,-7.392 0,-4 -2.944,-7.712 -7.04,-7.712 -3.776,0 -7.008,3.328 -7.008,7.68 z m 2.496,-0.32 c 0,-3.872 2.464,-5.376 4.512,-5.376 2.048,0 4.512,1.472 4.512,5.376 0,4 -2.368,5.696 -4.512,5.696 -2.112,0 -4.512,-1.664 -4.512,-5.696 z"
         style="shape-inside:url(#rect1800)"
         id="path1840" />
      <path
         d="m 884.64808,189.36909 h 2.688 v 8.608 c 0,3.52 1.568,4.096 2.624,4.096 1.44,0 3.072,-0.32 4.736,-1.216 l -0.512,-1.888 c -0.448,0.32 -1.44,1.056 -2.816,1.056 -1.664,0 -1.728,-1.888 -1.728,-2.784 v -7.872 h 4.512 v -1.888 h -4.512 v -4.032 h -2.24 v 4.032 h -2.752 z"
         style="shape-inside:url(#rect1800)"
         id="path1842" />
      <path
         d="m 920.00791,201.72109 h 2.688 v -2.688 h -2.688 z"
         style="shape-inside:url(#rect1800)"
         id="path1844" />
      <path
         d="m 958.66374,201.72109 h 11.968 v -2.016 h -1.472 l -0.672,0.032 h -6.432 l 8.48,-10.976 v -1.28 h -11.424 v 1.92 h 7.104 l 0.96,-0.032 -8.512,11.04 z"
         style="shape-inside:url(#rect1800)"
         id="path1846" />
      <path
         d="m 983.33567,194.64909 c 0,4.352 3.36,7.424 7.008,7.424 3.648,0 7.04,-3.04 7.04,-7.392 0,-4 -2.944,-7.712 -7.04,-7.712 -3.776,0 -7.008,3.328 -7.008,7.68 z m 2.496,-0.32 c 0,-3.872 2.464,-5.376 4.512,-5.376 2.048,0 4.512,1.472 4.512,5.376 0,4 -2.368,5.696 -4.512,5.696 -2.112,0 -4.512,-1.664 -4.512,-5.696 z"
         style="shape-inside:url(#rect1800)"
         id="path1848" />
      <path
         d="m 1011.5916,201.72109 h 2.496 v -7.68 c 0,-2.368 0.8,-4.928 3.264,-4.928 3.136,0 3.136,2.4 3.136,3.616 v 8.992 h 2.496 v -9.216 c 0,-2.24 -0.288,-5.344 -4.384,-5.344 -2.816,0 -4.224,1.824 -4.672,2.4 v -2.24 h -2.336 z"
         style="shape-inside:url(#rect1800)"
         id="path1850" />
      <path
         d="m 1037.3194,194.48909 c 0,3.968 2.784,7.584 6.976,7.584 2.016,0 3.68,-0.704 5.056,-1.632 l -0.192,-2.112 c -1.408,1.024 -2.848,1.76 -4.864,1.76 -2.432,0 -4.608,-2.112 -4.736,-5.408 h 9.92 v -0.928 c -0.288,-5.472 -3.424,-6.784 -5.696,-6.784 -3.392,0 -6.464,3.232 -6.464,7.52 z m 2.4,-1.568 c 0.352,-1.568 1.632,-3.968 4.064,-3.968 0.928,0 3.328,0.416 3.872,3.968 z"
         style="shape-inside:url(#rect1800)"
         id="path1852" />
    </g>
    <g
       id="g645"
       style="fill:#000000"
       transform="matrix(0.42470355,0,0,0.42470355,4.8410663,6.60086)">
      <g
         id="g44"
         transform="matrix(0.75173099,0,0,0.75173099,-295.96097,-3.3345496)"
         style="fill:#000000;stroke:none">
	<g
   id="g42"
   style="fill:#000000;stroke:none">
		<path
   class="st3"
   d="m 563.3,123.1 -12.4,-12.4 12.4,-12.4 12.4,12.4 z"
   id="path40"
   style="fill:#000000;stroke:none;stroke-miterlimit:10" />

	</g>

</g>
      <path
         class="st3"
         d="M 145.15477,89.277992 H 246.41295 V 71.16127 h -68.03166 z m -136.5895146,0 H 112.15379 V 71.16127 H 8.5652554 Z M 208.30018,32.672656 143.12511,71.236447 V 87.173155 L 242.3536,32.597481 Z M 59.08157,52.894218 15.857039,68.154358 v 0.07518 H 59.382266 L 84.941115,58.005996 84.790767,44.324491 Z M 8.4149073,29.966425 58.630536,50.037642 82.009367,42.294811 57.051901,32.522309 h -0.07522 L 8.4900813,12.300748 Z M 14.5791,11.549014 57.803631,29.590559 246.48811,29.515385 246.413,11.473841 H 14.57915 Z"
         id="path48"
         style="fill:#000000;stroke:none;stroke-width:0.75173;stroke-miterlimit:10" />
    </g>
  </g>
</svg>
