<?xml version="1.0" encoding="UTF-8" standalone="no"?>
<svg
   width="0.1347297in"
   height="0.1347291in"
   viewBox="0 0 3.4221343 3.4221192"
   version="1.1"
   id="svg8"
   inkscape:version="1.2 (dc2aedaf03, 2022-05-15)"
   sodipodi:docname="game-manual.svg"
   inkscape:export-filename="Y:\sync\3d-prints\travel-chess-v3\game-manual-side-1-margins.png"
   inkscape:export-xdpi="192"
   inkscape:export-ydpi="192"
   xmlns:inkscape="http://www.inkscape.org/namespaces/inkscape"
   xmlns:sodipodi="http://sodipodi.sourceforge.net/DTD/sodipodi-0.dtd"
   xmlns="http://www.w3.org/2000/svg"
   xmlns:svg="http://www.w3.org/2000/svg"
   xmlns:rdf="http://www.w3.org/1999/02/22-rdf-syntax-ns#"
   xmlns:cc="http://creativecommons.org/ns#"
   xmlns:dc="http://purl.org/dc/elements/1.1/"
   xmlns:shaper="http://www.shapertools.com/namespaces/shaper">
  <defs
     id="defs2" />
  <sodipodi:namedview
     id="base"
     pagecolor="#ffffff"
     bordercolor="#666666"
     borderopacity="1.0"
     inkscape:pageopacity="1"
     inkscape:pageshadow="2"
     inkscape:zoom="5.8186278"
     inkscape:cx="62.12805"
     inkscape:cy="929.68654"
     inkscape:document-units="in"
     inkscape:current-layer="layer11"
     inkscape:document-rotation="0"
     showgrid="false"
     inkscape:window-width="3436"
     inkscape:window-height="1392"
     inkscape:window-x="0"
     inkscape:window-y="46"
     inkscape:window-maximized="1"
     inkscape:snap-global="false"
     inkscape:snap-bbox="true"
     units="in"
     inkscape:showpageshadow="2"
     inkscape:pagecheckerboard="0"
     inkscape:deskcolor="#d1d1d1">
    <inkscape:grid
       type="xygrid"
       id="grid5869" />
  </sodipodi:namedview>
  <metadata
     id="metadata5">
    <rdf:RDF>
      <cc:Work
         rdf:about="">
        <dc:format>image/svg+xml</dc:format>
        <dc:type
           rdf:resource="http://purl.org/dc/dcmitype/StillImage" />
        <dc:title />
      </cc:Work>
    </rdf:RDF>
  </metadata>
  <g
     inkscape:groupmode="layer"
     id="layer11"
     inkscape:label="Scratch"
     style="display:inline"
     transform="translate(-45.247295,-252.19832)">
    <g
       id="g3457-1-56-9"
       transform="matrix(1.9011868,0,0,1.9011868,44.278037,252.4384)"
       style="display:inline;stroke:none">
      <g
         id="g3530-03-9-2"
         transform="translate(0.5098166,-0.12628441)"
         style="display:inline;stroke:none">
        <path
           d="M -2.4443332,3.6079371 A 0.9,0.9 165 0 0 -2.025,4.1544229 l 0.1,-0.1732051 A 0.7,0.7 120 0 1 -2.2511481,3.5561733 Z"
           fill="#000000"
           shaper:cutDepth="0"
           shaper:pathType="exterior"
           transform="matrix(1,0,0,-1,2.475,4.275)"
           vector-effect="non-scaling-stroke"
           id="path3491-8-81-0"
           style="stroke:none" />
        <path
           d="m -1.225,3.9812178 0.1,0.1732051 a 0.9,0.9 60 0 1 -0.6829371,0.08991 l 0.051764,-0.1931851 A 0.7,0.7 105 0 0 -1.225,3.9812178 Z"
           fill="#000000"
           shaper:cutDepth="0"
           shaper:pathType="exterior"
           transform="matrix(1,0,0,-1,2.475,4.275)"
           vector-effect="non-scaling-stroke"
           id="path3493-78-2-3"
           style="display:inline;stroke:none" />
        <path
           d="m -1.125,4.1544229 -0.1,-0.1732051 a 0.7,0.7 60 0 1 -0.5311733,0.06993 l -0.051764,0.1931851 A 0.9,0.9 105 0 1 -2.025,4.1544229 l 0.1,-0.1732051 A 0.7,0.7 120 0 1 -2.2511481,3.5561733 l -0.1931851,0.051764 A 0.9,0.9 165 0 1 -2.475,3.375 h 0.2 A 0.7,0.7 -180 0 1 -2.0699747,2.8800253 L -2.2113961,2.7386039 A 0.9,0.9 -135 0 1 -2.025,2.5955771 l 0.1,0.1732051 a 0.7,0.7 -120 0 1 0.5311733,-0.06993 l 0.051764,-0.1931851 A 0.9,0.9 -75 0 1 -1.125,2.5955771 l -0.1,0.1732051 a 0.7,0.7 -60 0 1 0.3261481,0.4250445 l 0.1931851,-0.051764 A 0.9,0.9 -15 0 1 -0.675,3.375 h -0.2 a 0.7,0.7 0 0 1 -0.2050253,0.4949747 l 0.1414214,0.1414214 A 0.9,0.9 45 0 1 -1.125,4.1544229 Z"
           fill="#000000"
           shaper:cutDepth="0"
           shaper:pathType="exterior"
           transform="matrix(1,0,0,-1,2.475,4.275)"
           vector-effect="non-scaling-stroke"
           id="path3495-93-4-4"
           style="display:inline;fill:#ffffff;fill-opacity:1;stroke:none" />
        <path
           d="M -2.2113961,2.7386039 A 0.9,0.9 -135 0 0 -2.475,3.375 h 0.2 a 0.7,0.7 -180 0 1 0.2050253,-0.4949747 z"
           fill="#000000"
           shaper:cutDepth="0"
           shaper:pathType="exterior"
           transform="matrix(1,0,0,-1,2.475,4.275)"
           vector-effect="non-scaling-stroke"
           id="path3497-7-2-5"
           style="stroke:none" />
        <path
           d="M -1.3420629,2.5056668 A 0.9,0.9 -75 0 0 -2.025,2.5955771 l 0.1,0.1732051 a 0.7,0.7 -120 0 1 0.5311733,-0.06993 z"
           fill="#000000"
           shaper:cutDepth="0"
           shaper:pathType="exterior"
           transform="matrix(1,0,0,-1,2.475,4.275)"
           vector-effect="non-scaling-stroke"
           id="path3499-60-3-6"
           style="stroke:none" />
        <path
           d="M -0.7056668,3.1420629 A 0.9,0.9 -15 0 0 -1.125,2.5955771 l -0.1,0.1732051 a 0.7,0.7 -60 0 1 0.3261481,0.4250445 z"
           fill="#000000"
           shaper:cutDepth="0"
           shaper:pathType="exterior"
           transform="matrix(1,0,0,-1,2.475,4.275)"
           vector-effect="non-scaling-stroke"
           id="path3501-6-4-6"
           style="stroke:none" />
        <path
           d="m -1.979,3.375 a 0.404,0.404 0 1 1 0.808,0 0.404,0.404 0 1 1 -0.808,0 z"
           fill="#000000"
           shaper:cutDepth="0"
           shaper:pathType="exterior"
           transform="matrix(1,0,0,-1,2.475,4.275)"
           vector-effect="non-scaling-stroke"
           id="path3503-8-2-7"
           style="fill:#ffff9c;fill-opacity:1;stroke:none" />
        <path
           d="M -0.9386039,4.0113961 A 0.9,0.9 45 0 0 -0.675,3.375 h -0.2 a 0.7,0.7 0 0 1 -0.2050253,0.4949747 z"
           fill="#000000"
           shaper:cutDepth="0"
           shaper:pathType="exterior"
           transform="matrix(1,0,0,-1,2.475,4.275)"
           vector-effect="non-scaling-stroke"
           id="path3505-27-2-7"
           style="fill:#000000;fill-opacity:1;stroke:none" />
        <path
           d="m -2.129,3.375 a 0.554,0.554 0 1 1 1.108,0 0.554,0.554 0 1 1 -1.108,0 z"
           fill="#ffffff"
           shaper:cutDepth="0"
           shaper:pathType="interior"
           stroke="#000000"
           transform="matrix(1,0,0,-1,2.475,4.275)"
           vector-effect="non-scaling-stroke"
           id="path3507-81-6-8"
           style="opacity:1;fill:#000000;fill-opacity:1;stroke:none" />
        <path
           d="m -1.979,3.375 a 0.404,0.404 0 1 1 0.808,0 0.404,0.404 0 1 1 -0.808,0 z"
           fill="#ffffff"
           shaper:cutDepth="0"
           shaper:pathType="interior"
           stroke="#000000"
           vector-effect="non-scaling-stroke"
           id="path3509-5-1-7"
           style="fill:#ffffff;fill-opacity:1;stroke:none"
           transform="matrix(1,0,0,-1,2.475,4.275)" />
      </g>
    </g>
  </g>
  <style
     type="text/css"
     id="style2">
	.st0{stroke:#FFFFFF;stroke-width:4;stroke-miterlimit:10;}
	.st1{fill:none;stroke:#00AEEF;stroke-linecap:square;stroke-miterlimit:10;}
	.st2{fill:none;stroke:#00AEEF;stroke-width:0.25;stroke-linecap:square;stroke-miterlimit:10;}
	.st3{fill:none;stroke:#000000;stroke-miterlimit:10;}
	.st4{fill:#FFFFFF;}
	.st5{stroke:#000000;stroke-width:4;stroke-miterlimit:10;}
</style>
</svg>
