<?xml version="1.0" encoding="UTF-8" standalone="no"?>
<svg
   width="0.13477701in"
   height="0.13473029in"
   viewBox="0 0 3.423336 3.4221495"
   version="1.1"
   id="svg8"
   inkscape:version="1.2 (dc2aedaf03, 2022-05-15)"
   sodipodi:docname="game-manual.svg"
   inkscape:export-filename="Y:\sync\3d-prints\travel-chess-v3\game-manual-side-1-margins.png"
   inkscape:export-xdpi="192"
   inkscape:export-ydpi="192"
   xmlns:inkscape="http://www.inkscape.org/namespaces/inkscape"
   xmlns:sodipodi="http://sodipodi.sourceforge.net/DTD/sodipodi-0.dtd"
   xmlns="http://www.w3.org/2000/svg"
   xmlns:svg="http://www.w3.org/2000/svg"
   xmlns:rdf="http://www.w3.org/1999/02/22-rdf-syntax-ns#"
   xmlns:cc="http://creativecommons.org/ns#"
   xmlns:dc="http://purl.org/dc/elements/1.1/"
   xmlns:shaper="http://www.shapertools.com/namespaces/shaper">
  <defs
     id="defs2" />
  <sodipodi:namedview
     id="base"
     pagecolor="#ffffff"
     bordercolor="#666666"
     borderopacity="1.0"
     inkscape:pageopacity="1"
     inkscape:pageshadow="2"
     inkscape:zoom="5.8186278"
     inkscape:cx="62.12805"
     inkscape:cy="929.68654"
     inkscape:document-units="in"
     inkscape:current-layer="layer11"
     inkscape:document-rotation="0"
     showgrid="false"
     inkscape:window-width="3436"
     inkscape:window-height="1392"
     inkscape:window-x="0"
     inkscape:window-y="46"
     inkscape:window-maximized="1"
     inkscape:snap-global="false"
     inkscape:snap-bbox="true"
     units="in"
     inkscape:showpageshadow="2"
     inkscape:pagecheckerboard="0"
     inkscape:deskcolor="#d1d1d1">
    <inkscape:grid
       type="xygrid"
       id="grid5869" />
  </sodipodi:namedview>
  <metadata
     id="metadata5">
    <rdf:RDF>
      <cc:Work
         rdf:about="">
        <dc:format>image/svg+xml</dc:format>
        <dc:type
           rdf:resource="http://purl.org/dc/dcmitype/StillImage" />
        <dc:title />
      </cc:Work>
    </rdf:RDF>
  </metadata>
  <g
     inkscape:groupmode="layer"
     id="layer11"
     inkscape:label="Scratch"
     style="display:inline"
     transform="translate(-45.247879,-234.5519)">
    <g
       id="g5026-6-2-6"
       transform="matrix(0.95,0,0,0.95,-141.83825,101.85133)"
       style="stroke:none">
      <g
         id="g5012-2-6-1"
         style="stroke:none">
        <path
           d="m 196.9954,141.01977 a 1.8011244,1.8011244 0 0 1 0.83919,-1.09366 l 0.20013,0.34663 a 1.4008745,1.4008745 0 0 0 -0.6527,0.85062 z"
           fill="#000000"
           shaper:cutDepth="0"
           shaper:pathType="exterior"
           vector-effect="non-scaling-stroke"
           id="path3491-7-9-1-6-92-4"
           style="display:inline;fill:#ffffff;fill-opacity:1;stroke:none;stroke-width:2.00125" />
        <path
           d="m 199.43559,140.27274 0.20013,-0.34663 a 1.8011244,1.8011244 0 0 0 -1.36673,-0.17993 l 0.10359,0.38661 a 1.4008745,1.4008745 0 0 1 1.06301,0.13995 z"
           fill="#000000"
           shaper:cutDepth="0"
           shaper:pathType="exterior"
           vector-effect="non-scaling-stroke"
           id="path3493-10-7-9-5-1-9"
           style="display:inline;fill:#ffffff;fill-opacity:1;stroke:none;stroke-width:2.00125" />
        <path
           d="m 197.46157,142.75952 a 1.8011244,1.8011244 0 0 1 -0.52754,-1.27359 h 0.40025 a 1.4008745,1.4008745 0 0 0 0.41031,0.99057 z"
           fill="#000000"
           shaper:cutDepth="0"
           shaper:pathType="exterior"
           vector-effect="non-scaling-stroke"
           id="path3497-49-8-6-5-5-0"
           style="display:inline;fill:#ffffff;fill-opacity:1;stroke:none;stroke-width:2.00125" />
        <path
           d="m 199.20132,143.22569 a 1.8011244,1.8011244 0 0 1 -1.36673,-0.17994 l 0.20013,-0.34662 a 1.4008745,1.4008745 0 0 0 1.06301,0.13994 z"
           fill="#000000"
           shaper:cutDepth="0"
           shaper:pathType="exterior"
           vector-effect="non-scaling-stroke"
           id="path3499-68-4-0-8-4-6"
           style="display:inline;fill:#ffffff;fill-opacity:1;stroke:none;stroke-width:2.00125" />
        <path
           d="m 200.47491,141.9521 a 1.8011244,1.8011244 0 0 1 -0.83919,1.09365 l -0.20013,-0.34662 a 1.4008745,1.4008745 0 0 0 0.65271,-0.85062 z"
           fill="#000000"
           shaper:cutDepth="0"
           shaper:pathType="exterior"
           vector-effect="non-scaling-stroke"
           id="path3501-32-0-7-9-6-4"
           style="display:inline;fill:#ffffff;fill-opacity:1;stroke:none;stroke-width:2.00125" />
        <path
           d="m 200.00874,140.21235 a 1.8011244,1.8011244 0 0 1 0.52754,1.27358 h -0.40025 a 1.4008745,1.4008745 0 0 0 -0.4103,-0.99056 z"
           fill="#000000"
           shaper:cutDepth="0"
           shaper:pathType="exterior"
           vector-effect="non-scaling-stroke"
           id="path3505-80-0-0-0-6-7"
           style="display:inline;fill:#ffffff;fill-opacity:1;stroke:none;stroke-width:2.00125" />
      </g>
      <g
         id="g3457-7-3-06-0-9-3"
         transform="matrix(2.0012493,0,0,2.0012493,195.9125,139.92572)"
         style="display:inline;stroke:none">
        <g
           id="g3530-0-6-3-0-8-4"
           transform="translate(0.5098166,-0.12628441)"
           style="display:inline;stroke:none">
          <path
             d="m -1.125,4.1544229 -0.1,-0.1732051 a 0.7,0.7 60 0 1 -0.5311733,0.06993 l -0.051764,0.1931851 A 0.9,0.9 105 0 1 -2.025,4.1544229 l 0.1,-0.1732051 A 0.7,0.7 120 0 1 -2.2511481,3.5561733 l -0.1931851,0.051764 A 0.9,0.9 165 0 1 -2.475,3.375 h 0.2 A 0.7,0.7 -180 0 1 -2.0699747,2.8800253 L -2.2113961,2.7386039 A 0.9,0.9 -135 0 1 -2.025,2.5955771 l 0.1,0.1732051 a 0.7,0.7 -120 0 1 0.5311733,-0.06993 l 0.051764,-0.1931851 A 0.9,0.9 -75 0 1 -1.125,2.5955771 l -0.1,0.1732051 a 0.7,0.7 -60 0 1 0.3261481,0.4250445 l 0.1931851,-0.051764 A 0.9,0.9 -15 0 1 -0.675,3.375 h -0.2 a 0.7,0.7 0 0 1 -0.2050253,0.4949747 l 0.1414214,0.1414214 A 0.9,0.9 45 0 1 -1.125,4.1544229 Z"
             fill="#000000"
             shaper:cutDepth="0"
             shaper:pathType="exterior"
             transform="matrix(1,0,0,-1,2.475,4.275)"
             vector-effect="non-scaling-stroke"
             id="path3495-4-8-3-4-8-8"
             style="display:inline;fill:#000000;fill-opacity:1;stroke:none" />
          <path
             d="m -2.129,3.375 a 0.554,0.554 0 1 1 1.108,0 0.554,0.554 0 1 1 -1.108,0 z"
             fill="#ffffff"
             shaper:cutDepth="0"
             shaper:pathType="interior"
             stroke="#000000"
             transform="matrix(1,0,0,-1,2.475,4.275)"
             vector-effect="non-scaling-stroke"
             id="path3507-4-4-6-9-4-7"
             style="display:inline;opacity:1;fill:#ffffff;fill-opacity:1;stroke:none" />
          <path
             d="m -1.979,3.375 a 0.404,0.404 0 1 1 0.808,0 0.404,0.404 0 1 1 -0.808,0 z"
             fill="#ffffff"
             shaper:cutDepth="0"
             shaper:pathType="interior"
             stroke="#000000"
             vector-effect="non-scaling-stroke"
             id="path3509-0-5-7-8-9-1"
             style="display:inline;fill:#000000;fill-opacity:1;stroke:none"
             transform="matrix(1,0,0,-1,2.475,4.275)" />
        </g>
      </g>
    </g>
  </g>
  <style
     type="text/css"
     id="style2">
	.st0{stroke:#FFFFFF;stroke-width:4;stroke-miterlimit:10;}
	.st1{fill:none;stroke:#00AEEF;stroke-linecap:square;stroke-miterlimit:10;}
	.st2{fill:none;stroke:#00AEEF;stroke-width:0.25;stroke-linecap:square;stroke-miterlimit:10;}
	.st3{fill:none;stroke:#000000;stroke-miterlimit:10;}
	.st4{fill:#FFFFFF;}
	.st5{stroke:#000000;stroke-width:4;stroke-miterlimit:10;}
</style>
</svg>
